<?xml version="1.0" encoding="utf-8"?>
<!-- Generator: Adobe Illustrator 16.0.0, SVG Export Plug-In . SVG Version: 6.00 Build 0)  -->
<!DOCTYPE svg PUBLIC "-//W3C//DTD SVG 1.1//EN" "http://www.w3.org/Graphics/SVG/1.1/DTD/svg11.dtd">
<svg version="1.1" id="Layer_1" xmlns="http://www.w3.org/2000/svg" xmlns:xlink="http://www.w3.org/1999/xlink" x="0px" y="0px"
	 width="1000px" height="200px" viewBox="0 0 1000 200" enable-background="new 0 0 1000 200" xml:space="preserve">
<g>
	<g>
		<path fill="#38BEE5" d="M121.598,143.085c0-1.821-1.598-3.45-2.598-4.523v-17.163c0-0.6,0.3-1.192,0.016-1.721l-17.684-33.501
			c1.479-1.563,3.185-3.663,3.185-5.981c0-3.596-2.517-6.691-4.517-8.019V55.359c1-1.062,1.761-2.789,1.761-4.741
			c0-3.225-2.962-5.847-6.185-5.847c-3.224,0-6.183,2.622-6.183,5.847c0,1.721,0.606,3.27,1.606,4.339v17.462
			c-2,1.434-4.643,4.378-4.643,7.776c0,4.631,2.918,8.416,7.481,8.687L111,122.313v16.186c0,1.07-1.44,2.726-1.44,4.586
			c0,3.226,2.795,5.847,6.019,5.847C118.802,148.932,121.598,146.311,121.598,143.085z M95.236,47.429
			c1.759,0,3.189,1.429,3.189,3.189c0,1.757-1.43,3.188-3.189,3.188c-1.758,0-3.187-1.432-3.187-3.188
			C92.049,48.857,93.478,47.429,95.236,47.429z M95.236,83.595c-1.874,0-3.398-1.525-3.398-3.399s1.524-3.397,3.398-3.397
			c1.876,0,3.401,1.523,3.401,3.397S97.112,83.595,95.236,83.595z M113.012,143.085c0-1.757,1.431-3.188,3.188-3.188
			c1.759,0,3.189,1.432,3.189,3.188c0,1.76-1.43,3.188-3.189,3.188C114.443,146.273,113.012,144.845,113.012,143.085z"/>
		<path fill="#38BEE5" d="M104,35.775v29.421c0,0.864-0.359,1.607,0.199,2.268L111.733,77h-0.238c0,5,4.505,7.637,6.505,8.844v8.574
			c0,1.066-2.086,2.77-2.086,4.69c0,2.761,2.461,5.073,5.038,5.684l5.048,8.903v9.477c-2,1.175-3.898,3.406-3.898,5.966
			c0,3.774,2.87,6.843,6.644,6.843c3.772,0,6.486-3.068,6.486-6.843c0-2.292-0.231-4.323-3.231-5.563v-10.752
			c0-0.572,0.122-1.139-0.136-1.649l-4.696-9.522c0.375-0.77,0.718-1.63,0.718-2.542c0-1.757,0.114-3.332-1.886-4.406v-9.543
			c2-1.562,4.698-4.548,4.698-7.976c0-3.426-2.698-6.414-4.698-7.977V26.985c0-0.069-0.072-0.136-0.076-0.203
			c1.239-1.072,1.995-2.653,1.995-4.415c0-3.225-2.638-5.847-5.861-5.847c-3.224,0-6.137,2.622-6.137,5.847
			c0,1.922,2.079,3.622,2.079,4.688v41.468c0,0.336-1.453,0.844-2.274,1.489L111,63.856V35.648c0-1.073,1.908-2.688,1.908-4.49
			c0-3.223-2.722-5.846-5.945-5.846c-3.222,0-5.541,2.623-5.541,5.846C101.422,33.035,102,34.705,104,35.775z M128.548,126.946
			c1.208,0,2.192,0.983,2.192,2.191c0,1.21-0.984,2.192-2.192,2.192s-2.192-0.982-2.192-2.192
			C126.355,127.93,127.339,126.946,128.548,126.946z M122.041,102.297c-1.758,0-3.187-1.43-3.187-3.188
			c0-1.757,1.429-3.188,3.187-3.188c1.759,0,3.19,1.432,3.19,3.188C125.231,100.867,123.8,102.297,122.041,102.297z M122.041,19.178
			c1.759,0,3.19,1.431,3.19,3.189c0,1.758-1.431,3.186-3.19,3.186c-1.758,0-3.187-1.428-3.187-3.186
			C118.854,20.608,120.283,19.178,122.041,19.178z M121.44,72.703c2.471,0,4.481,2.01,4.481,4.48c0,2.472-2.01,4.481-4.481,4.481
			c-2.472,0-4.482-2.01-4.482-4.481C116.958,74.713,118.968,72.703,121.44,72.703z M106.861,27.97c1.758,0,3.188,1.43,3.188,3.188
			c0,1.758-1.43,3.188-3.188,3.188s-3.188-1.43-3.188-3.188C103.674,29.399,105.103,27.97,106.861,27.97z"/>
		<path fill="#38BEE5" d="M178.925,111.099c-0.263-0.461-0.534-0.867-0.795-1.245c-0.523-0.751-1.082-1.312-1.518-1.776
			c-0.47-0.443-0.885-0.753-1.144-0.969c-0.268-0.215-0.425-0.318-0.425-0.318s-0.015,0.192-0.021,0.534
			c0.004,0.34-0.023,0.844-0.002,1.443c-0.04,0.613-0.007,1.323-0.068,2.105c-0.042,0.394-0.033,0.792-0.09,1.205
			c-0.072,0.411-0.094,0.826-0.18,1.242c-0.12,0.409-0.141,0.827-0.304,1.223c-0.074,0.198-0.125,0.396-0.183,0.592
			c-0.067,0.196-0.166,0.385-0.245,0.575c-0.137,0.382-0.381,0.745-0.554,1.119c-0.244,0.37-0.436,0.739-0.72,1.124
			c-0.235,0.377-0.567,0.778-0.849,1.18c-0.339,0.411-0.637,0.826-1.013,1.266c-0.751,0.911-1.515,1.837-2.279,2.764
			c-0.399,0.493-0.798,0.991-1.195,1.482c-0.384,0.48-0.793,1.003-1.188,1.523c-0.799,1.042-1.588,2.186-2.282,3.368
			c-0.702,1.171-1.3,2.462-1.74,3.735c-0.433,1.292-0.698,2.606-0.745,3.846c-0.031,0.61,0.027,1.223,0.069,1.769
			c0.104,0.562,0.203,1.08,0.338,1.549c0.179,0.467,0.337,0.889,0.511,1.262c0.193,0.379,0.409,0.718,0.599,0.998
			c0.094,0.137,0.182,0.269,0.268,0.39c0.095,0.105,0.193,0.196,0.28,0.286c0.175,0.172,0.326,0.32,0.447,0.441
			c0.245,0.237,0.393,0.358,0.393,0.358s0.035-0.186,0.072-0.526c0.018-0.169,0.037-0.377,0.063-0.625
			c0.012-0.121,0.026-0.253,0.04-0.395c0.03-0.126,0.062-0.263,0.095-0.404c0.077-0.282,0.125-0.562,0.216-0.865
			c0.122-0.318,0.218-0.644,0.333-0.973c0.148-0.315,0.306-0.649,0.474-0.999c0.225-0.333,0.364-0.67,0.619-1.002
			c0.247-0.332,0.45-0.673,0.753-1.007c0.258-0.336,0.567-0.687,0.876-1.032c0.66-0.695,1.338-1.425,2.145-2.2
			c0.794-0.779,1.632-1.596,2.529-2.507c0.445-0.46,0.896-0.917,1.357-1.437l0.344-0.382l0.349-0.402l0.636-0.752
			c0.867-1.071,1.73-2.196,2.501-3.45c0.393-0.6,0.75-1.29,1.095-1.946c0.319-0.713,0.645-1.383,0.877-2.147
			c0.264-0.721,0.43-1.51,0.576-2.261c0.059-0.383,0.095-0.774,0.126-1.15c0.044-0.375,0.049-0.753,0.026-1.126
			c0.002-1.486-0.357-2.822-0.753-3.952C179.414,112.073,179.165,111.571,178.925,111.099z"/>
		<path fill="#38BEE5" d="M138,25.805V138.59c-1,1.074-2.2,2.69-2.2,4.495c0,3.226,2.58,5.847,5.804,5.847
			c3.222,0,5.757-2.621,5.757-5.847c0-1.876-1.36-3.541-2.36-4.614V63.27c1,0.906,1.503,1.793,2.252,2.648
			c0.89,0.999,1.83,1.969,2.726,2.917c0.892,0.926,1.804,1.854,2.699,2.785c0.865,0.914,1.739,1.832,2.602,2.744
			c0.838,0.914,1.658,1.828,2.421,2.727c1.527,1.811,2.828,3.606,3.697,5.382c0.432,0.883,0.746,1.765,0.947,2.644
			c0.225,0.879,0.313,1.766,0.278,2.658c0.019,0.446-0.054,0.894-0.081,1.342c-0.091,0.447-0.125,0.896-0.252,1.337
			c-0.051,0.223-0.102,0.444-0.151,0.664c-0.065,0.221-0.131,0.436-0.194,0.655c-0.119,0.434-0.284,0.858-0.44,1.275
			c-0.624,1.682-1.412,3.22-2.14,4.584c-0.752,1.356-1.458,2.542-2.059,3.515c-0.602,0.975-1.072,1.759-1.414,2.275
			c-0.333,0.527-0.5,0.82-0.5,0.82s0.287-0.171,0.808-0.518c0.521-0.344,1.297-0.845,2.224-1.559
			c0.938-0.705,2.032-1.622,3.239-2.763c1.18-1.163,2.47-2.556,3.677-4.326c1.174-1.775,2.343-3.937,2.859-6.611
			c0.263-1.323,0.358-2.756,0.235-4.2c-0.128-1.446-0.461-2.894-0.938-4.276c-1.006-2.738-2.528-5.185-4.21-7.36
			c-0.827-1.111-1.721-2.136-2.619-3.146c-0.899-1.012-1.805-1.983-2.75-2.936c-1.848-1.912-3.756-3.681-5.473-5.422
			c-1.741-1.725-3.307-3.442-4.623-5.191c-0.647-0.882-1.327-1.763-1.85-2.662c-0.324-0.567-0.97-1.139-0.97-1.711V25.999
			c3-1.347,5.412-4.466,5.412-8.09c0-4.853-3.914-8.8-8.766-8.8c-4.851,0-8.696,3.947-8.696,8.8
			C132.951,21.378,135,24.375,138,25.805z M141.56,146.273c-1.758,0-3.189-1.429-3.189-3.188c0-1.757,1.431-3.188,3.189-3.188
			c1.758,0,3.189,1.432,3.189,3.188C144.749,144.845,143.317,146.273,141.56,146.273z M141.68,13.095
			c2.655,0,4.814,2.159,4.814,4.814c0,2.651-2.159,4.812-4.814,4.812c-2.653,0-4.813-2.16-4.813-4.812
			C136.867,15.254,139.027,13.095,141.68,13.095z"/>
		<path fill="#38BEE5" d="M154.892,123.652c0.425-1.248,0.973-2.516,1.536-3.78c0.561-1.265,1.189-2.524,1.78-3.775
			c1.218-2.484,2.394-4.896,3.318-7.05c0.927-2.15,1.596-4.032,1.989-5.391c0.21-0.669,0.319-1.229,0.416-1.595
			c0.088-0.371,0.123-0.575,0.123-0.575s-0.173,0.117-0.476,0.348c-0.297,0.236-0.748,0.569-1.288,1.013
			c-1.08,0.886-2.577,2.165-4.256,3.802c-0.838,0.822-1.724,1.736-2.629,2.742c-0.896,1.014-1.826,2.104-2.719,3.315
			c-0.902,1.206-1.788,2.506-2.583,3.938c-0.796,1.428-1.538,2.952-2.11,4.605c-0.564,1.651-0.974,3.416-1.127,5.219
			c-0.164,1.799-0.028,3.649,0.401,5.346c0.404,1.701,1.068,3.266,1.887,4.57c0.788,1.331,1.738,2.398,2.634,3.311
			c0.47,0.436,0.928,0.834,1.367,1.201c0.452,0.354,0.894,0.664,1.312,0.947c0.828,0.572,1.635,0.976,2.256,1.311
			c0.636,0.295,1.169,0.483,1.517,0.631c0.354,0.139,0.553,0.202,0.553,0.202s-0.092-0.186-0.279-0.518
			c-0.192-0.323-0.458-0.824-0.829-1.415c-0.318-0.624-0.743-1.294-1.157-2.119c-0.2-0.416-0.451-0.824-0.663-1.28
			c-0.198-0.464-0.438-0.92-0.647-1.409c-0.396-0.986-0.81-2.02-1.069-3.112c-0.305-1.075-0.452-2.201-0.503-3.334
			c-0.036-1.137,0.03-2.291,0.26-3.483C154.122,126.123,154.461,124.897,154.892,123.652z"/>
		<path fill="#38BEE5" d="M196.949,66.624c-0.098-0.77-0.179-1.492-0.282-2.168c-0.195-1.354-0.492-2.514-0.71-3.46
			c-0.531-1.89-0.943-2.932-0.943-2.932c0.002,0-0.347,1.093-0.791,2.938c-0.279,0.922-0.525,2.033-0.89,3.279
			c-0.187,0.622-0.353,1.28-0.548,1.968c-0.223,0.684-0.432,1.398-0.66,2.138c-0.476,1.472-1.017,3.027-1.64,4.625
			c-0.328,0.784-0.665,1.592-1.008,2.415c-0.41,0.793-0.738,1.626-1.167,2.434c-0.454,0.795-0.823,1.636-1.326,2.424
			c-0.233,0.401-0.466,0.807-0.701,1.212c-0.255,0.393-0.509,0.791-0.766,1.187c-1.006,1.602-2.175,3.134-3.366,4.654l-0.937,1.114
			c-0.314,0.37-0.614,0.758-0.935,1.087c-0.647,0.688-1.185,1.365-1.98,2.139c-0.367,0.377-0.731,0.753-1.096,1.128l-0.133,0.139
			l-0.018,0.021c0.059-0.054,0.088-0.08,0.109-0.1l-0.022,0.022l-0.069,0.063l-0.27,0.257l-0.542,0.513
			c-0.727,0.695-1.464,1.388-2.194,2.115c-1.469,1.429-2.897,2.94-4.154,4.544c-1.258,1.596-2.309,3.366-2.99,5.146
			c-0.358,0.878-0.562,1.8-0.735,2.649c-0.056,0.437-0.081,0.87-0.112,1.278c-0.013,0.204-0.025,0.406-0.038,0.603
			c0.018,0.2,0.032,0.397,0.048,0.59c0.037,0.38,0.073,0.744,0.108,1.098c0.053,0.348,0.16,0.676,0.241,0.984
			c0.087,0.306,0.168,0.598,0.248,0.877c0.109,0.277,0.237,0.532,0.345,0.771c0.412,0.986,0.877,1.556,1.193,1.984
			c0.319,0.418,0.49,0.641,0.49,0.641s-0.006-0.28-0.02-0.806c-0.009-0.262-0.022-0.584-0.048-0.961
			c-0.022-0.188,0-0.386,0.021-0.591c0.015-0.198,0.033-0.41,0.05-0.633c0.019-0.215,0.036-0.441,0.056-0.677
			c0.05-0.234,0.103-0.483,0.157-0.739c0.06-0.252,0.095-0.511,0.168-0.77c0.093-0.252,0.187-0.514,0.286-0.782
			c0.046-0.13,0.094-0.264,0.141-0.396c0.066-0.129,0.134-0.258,0.203-0.391c0.14-0.261,0.263-0.526,0.414-0.786
			c0.37-0.509,0.669-1.041,1.145-1.54c0.873-1.018,1.955-2.025,3.277-3.041c1.309-1.022,2.804-2.058,4.405-3.195
			c0.808-0.559,1.642-1.159,2.493-1.787l0.642-0.49l0.322-0.245l0.081-0.062l0.04-0.029c0.069-0.062-0.125,0.111,0.158-0.143
			l0.02-0.017l0.148-0.124c0.395-0.343,0.792-0.686,1.189-1.029c0.767-0.637,1.648-1.538,2.478-2.377
			c0.853-0.849,1.555-1.743,2.331-2.625c1.442-1.837,2.795-3.768,3.882-5.816c0.272-0.514,0.54-1.023,0.807-1.529
			c0.233-0.525,0.465-1.048,0.695-1.565c0.478-1.03,0.812-2.106,1.169-3.139c0.188-0.515,0.302-1.052,0.452-1.566
			c0.143-0.519,0.282-1.031,0.396-1.543c0.18-1.036,0.409-2.033,0.524-3.021c0.088-0.989,0.233-1.936,0.258-2.864
			c0.013-0.929,0.069-1.813,0.037-2.667C197.039,68.201,197.006,67.392,196.949,66.624z"/>
		<path fill="#38BEE5" d="M153.739,15.404c0.215,0.066,0.444,0.135,0.688,0.209c0.241,0.081,0.484,0.188,0.742,0.289
			c0.507,0.197,1.068,0.415,1.679,0.653c0.598,0.264,1.245,0.577,1.922,0.893c0.684,0.288,1.374,0.707,2.1,1.103
			c0.358,0.218,0.743,0.376,1.104,0.624c0.362,0.235,0.735,0.477,1.115,0.722c0.768,0.455,1.515,1.027,2.286,1.595
			c0.788,0.535,1.525,1.221,2.313,1.848c0.765,0.659,1.521,1.383,2.298,2.094c0.712,0.798,1.525,1.499,2.233,2.348
			c0.719,0.837,1.471,1.653,2.152,2.564c0.73,0.86,1.387,1.803,2.065,2.736c0.691,0.923,1.28,1.939,1.947,2.897l0.898,1.514
			c0.307,0.502,0.612,1.004,0.876,1.533l0.845,1.552c0.283,0.517,0.519,1.058,0.785,1.582l0.387,0.792l0.198,0.395l0.211,0.445
			l0.404,0.854l0.33,0.743c0.901,2.056,1.676,4.183,2.228,6.218c0.288,1.022,0.483,2.034,0.65,3.008
			c0.17,0.978,0.254,1.934,0.275,2.829c0.055,1.812-0.212,3.401-0.782,4.696c-0.57,1.289-1.511,2.302-2.631,3.027
			c-1.114,0.738-2.345,1.16-3.384,1.458c-0.523,0.154-1.005,0.261-1.433,0.345c-0.426,0.094-0.796,0.163-1.098,0.204
			c-0.611,0.103-0.937,0.157-0.937,0.157s0.31,0.118,0.891,0.341c0.148,0.055,0.313,0.115,0.497,0.18
			c0.185,0.054,0.388,0.108,0.608,0.168c0.222,0.06,0.462,0.122,0.717,0.191c0.262,0.047,0.542,0.096,0.834,0.148
			c1.185,0.185,2.7,0.312,4.501-0.076c0.451-0.104,0.918-0.217,1.388-0.41c0.48-0.161,0.946-0.403,1.435-0.653
			c0.949-0.545,1.891-1.284,2.709-2.209c0.808-0.928,1.477-2.021,2.017-3.19c0.538-1.18,0.874-2.435,1.135-3.717
			c0.482-2.574,0.482-5.259,0.13-7.918c-0.328-2.679-1.007-5.314-1.965-7.936l-0.383-1.012l-0.36-0.881l-0.178-0.426l-0.206-0.468
			l-0.424-0.936c-0.289-0.621-0.546-1.261-0.873-1.868l-0.97-1.825c-0.643-1.221-1.426-2.365-2.149-3.532
			c-0.395-0.565-0.801-1.12-1.207-1.675c-0.401-0.555-0.798-1.112-1.251-1.625c-0.438-0.522-0.877-1.041-1.312-1.56
			c-0.435-0.515-0.928-0.983-1.386-1.471c-0.477-0.473-0.917-0.966-1.419-1.404c-0.497-0.435-0.993-0.869-1.483-1.299
			c-0.478-0.438-0.997-0.83-1.509-1.216c-0.507-0.394-1.019-0.768-1.525-1.136c-0.531-0.337-1.056-0.673-1.574-1.003
			c-0.522-0.321-1.013-0.67-1.561-0.928c-2.109-1.135-4.186-2.038-6.182-2.627c-1-0.286-1.937-0.585-2.879-0.724
			c-0.932-0.154-1.784-0.366-2.629-0.393c-0.837-0.054-1.595-0.141-2.319-0.14c-0.733,0.023-1.394,0.043-1.982,0.08
			c-0.294,0.021-0.574,0.027-0.828,0.056c-0.252,0.044-0.489,0.085-0.71,0.121c-0.439,0.08-0.814,0.149-1.118,0.204
			c-0.608,0.126-0.932,0.192-0.932,0.192s0.314,0.104,0.902,0.307C152.949,15.155,153.313,15.271,153.739,15.404z"/>
		<path fill="#38BEE5" d="M148.968,29.867c-0.267,0.283-0.41,0.436-0.41,0.436s0.206-0.013,0.592-0.035
			c0.185-0.021,0.42-0.023,0.688-0.025c0.264-0.01,0.568,0,0.899,0.019c0.659,0.03,1.429,0.131,2.243,0.354
			c0.813,0.221,1.666,0.556,2.515,1.022c0.849,0.468,1.699,1.078,2.527,1.801c0.84,0.704,1.632,1.579,2.411,2.494
			c0.765,0.936,1.491,1.956,2.135,3.025c0.322,0.534,0.625,1.08,0.896,1.629c0.13,0.262,0.278,0.575,0.369,0.798l0.166,0.38
			l0.218,0.535c0.422,1.095,0.726,2.16,0.927,3.257c0.194,1.094,0.288,2.21,0.293,3.354c0.001,1.14-0.078,2.302-0.219,3.452
			c-0.068,0.573-0.146,1.144-0.234,1.705c-0.101,0.558-0.187,1.113-0.291,1.651c-0.208,1.07-0.415,2.094-0.614,3.017
			c-0.2,0.946-0.373,1.772-0.515,2.452c-0.137,0.704-0.244,1.258-0.311,1.659c-0.069,0.395-0.093,0.612-0.093,0.612
			s0.199-0.093,0.549-0.287c0.351-0.188,0.854-0.498,1.46-0.917c0.603-0.424,1.311-0.967,2.067-1.662
			c0.751-0.693,1.565-1.526,2.353-2.539c0.399-0.5,0.794-1.047,1.165-1.641c0.382-0.592,0.752-1.225,1.089-1.911
			c0.678-1.366,1.246-2.928,1.588-4.655c0.34-1.722,0.439-3.61,0.206-5.517c-0.235-1.905-0.812-3.816-1.654-5.529l-0.256-0.519
			l-0.341-0.652c-0.25-0.469-0.476-0.826-0.729-1.227c-0.49-0.785-1.046-1.503-1.613-2.195c-1.144-1.377-2.436-2.57-3.798-3.582
			c-1.371-1.007-2.831-1.811-4.306-2.388c-1.483-0.561-2.966-0.909-4.363-0.979c-1.394-0.085-2.672,0.079-3.73,0.387
			c-1.062,0.297-1.907,0.728-2.537,1.146c-0.318,0.194-0.58,0.404-0.803,0.588C149.281,29.553,149.106,29.725,148.968,29.867z"/>
		<path fill="#38BEE5" d="M168.083,157.999c0-3.084-2.494-4.999-5.576-4.999h-44.611c-3.083,0-5.575,1.915-5.575,4.999
			c0,3.082,2.493,5.284,5.575,5.284c-3.083,0-5.575,2.35-5.575,5.434c0,3.08,2.493,5.503,5.575,5.503
			c-3.083,0-5.575,2.809-5.575,5.889c0,3.084,2.493,5.892,5.575,5.892h11.153c2.635,3,6.762,5.578,11.154,5.578
			c4.389,0,8.516-2.578,11.152-5.578h11.152c3.082,0,5.576-2.843,5.576-5.926c0-3.081-2.494-5.754-5.576-5.754
			c3.082,0,5.576-2.58,5.576-5.662s-2.494-5.332-5.576-5.332C165.589,163.326,168.083,161.081,168.083,157.999z"/>
	</g>
</g>
<g>
	<path fill="#38BEE5" d="M307.463,95.171c2.692-2.423,39.568,3.113,41.066-26.762c1.042-20.745-47.525-34.492-76.25-32.995
		c-14.86,0.779-15.796,10.27-15.572,19.843c0.189,8.243,16.618,76.008,31.145,113.052c2.308,5.879,17.651-3.463,21.226-12.691
		C313.421,144.411,304.003,98.284,307.463,95.171z M298.771,82.406c-3.535-6.807-5.728-15.037-6.842-21.191
		c16.928,0.541,35.504,4.915,35.299,9.194C326.999,75.216,311.541,73.985,298.771,82.406z"/>
	<path fill="#38BEE5" d="M385.213,77.294c-17.727-5.644-37.606,4.248-50.294,33.087c-11.648,26.476-4.506,56.117,13.842,59.185
		c19.379,3.241,41.99-6.812,50.757-38.188C407.3,103.52,403.629,83.158,385.213,77.294z M380.966,128.916
		c-2.467,13.991-10.587,18.881-17.841,17.86c-6.869-0.967-10.25-13.858-6.594-25.746c3.98-12.956,11.096-17.718,17.8-15.606
		C381.293,107.62,383.16,116.501,380.966,128.916z"/>
	<path fill="#38BEE5" d="M583.736,95.432c-10.382-3.461-23.652-2.204-36.682,22.072c-11.82,22.02-7.457,44.108,6.921,51.297
		c11.073,5.535,29.991-6.463,36.683-28.15C598.025,116.771,596.549,99.701,583.736,95.432z M581.313,136.383
		c-0.347,9.46-2.998,16.267-6.113,15.573c-5.853-1.299-7.534-7.728-7.534-15.919c0-9.229,4.077-14.258,6.79-14.169
		C577.613,121.972,581.732,125.029,581.313,136.383z"/>
	<path fill="#38BEE5" d="M428.587,131.055c-2.559-11.415,0.729-19.802,5.538-21.454c3.619-1.246,14.726,3.325,15.688,0.46
		c2.216-6.588-10.084-21.412-19.841-21.456c-13.382-0.062-24.889,22.365-25.147,40.769c-0.22,15.689,5.307,37.214,16.841,40.212
		c14.684,3.816,34.485-12.843,34.837-22.609C456.809,138.501,434.781,158.687,428.587,131.055z"/>
	<path fill="#38BEE5" d="M542.521,112.698c4.653-7.483-3.19-7.483-8.958-7.483c-12.97,0-42.683,10.612-42.683,10.612
		s12.873-28.328,8.998-34.145c-5.912-8.873-43.605-27.687-48.218-24.917c-15.541,9.325,11.304,72.675,29.992,111.437
		c1.389,2.878,11.411,1.312,12.689-1.615c1.287-2.948-5.285-23.542-1.845-29.766c1.734-3.135,13.557-6.526,12.92-2.999
		c-2.539,14.01,5.33,29.085,9.92,32.765c3.922,3.141,14.604,2.075,12.688-1.385C521.695,153.76,528.738,134.848,542.521,112.698z"/>
	<polygon fill="#38BEE5" points="652.301,39 637.803,39 615.074,171 683.771,171 686.465,155 632.266,155 	"/>
	<path fill="#38BEE5" d="M758.805,77.856c-4.953-4.304-12.02-6.455-21.199-6.455c-7.916,0-15.274,3.299-22.074,7.924
		c-6.8,4.63-11.34,11.675-13.622,25.675h12.239c1.311-8,2.986-9.671,5.027-12.183c3.641-4.54,8.887-7.3,15.734-7.3
		c5.924,0,10.272,0.996,13.04,3.472c2.769,2.482,3.667,6.35,2.695,11.842c-0.437,2.691-1.068,4.691-1.894,6.127
		c-1.507,2.629-3.813,4.15-6.92,4.628l-21.418,3.215c-7.529,1.138-13.976,4.147-19.342,9.046
		c-5.367,4.902-8.828,11.797-10.381,20.702c-1.41,8.124-0.281,14.887,3.387,20.295c3.666,5.409,9.117,8.111,16.354,8.111
		c6.021,0,11.802-1.584,17.338-4.75c5.538-3.165,10.029-6.9,13.478-11.202c-0.243,3.822,0,6.781,0.729,8.874
		c1.359,3.943,4.297,5.914,8.814,5.914c1.846,0,3.315-0.09,4.408-0.27c1.092-0.179,2.706-0.626,4.844-1.344l2.113-11.92
		c-0.874,0.178-1.688,0.312-2.44,0.402c-0.755,0.089-1.421,0.136-2.004,0.136c-1.797,0-2.877-0.509-3.242-1.524
		c-0.363-1.016-0.4-2.359-0.108-4.034l9.543-55.304C765.458,88.851,763.759,82.158,758.805,77.856z M744.599,133.876
		c-1.747,9.92-6.63,17.062-14.642,21.423c-4.809,2.63-9.52,3.945-14.133,3.945c-3.788,0-6.837-1.346-9.143-4.035
		c-2.308-2.689-3.049-6.363-2.223-11.023c1.068-6.154,3.861-10.637,8.378-13.446c2.671-1.672,6.458-2.897,11.364-3.675l8.16-1.254
		c2.477-0.359,5.049-0.958,7.722-1.795c2.67-0.834,4.903-1.881,6.702-3.137L744.599,133.876z"/>
	<path fill="#38BEE5" d="M840.213,83.547c-4.639-8.214-11.814-12.324-21.528-12.324c-4.66,0-9.19,1.21-13.585,3.63
		c-4.396,2.421-8.415,6.125-12.057,10.725L801.275,38h-12.75l-22.802,133h12.094l2.113-12.914c1.941,4.601,3.956,7.631,6.046,9.719
		c3.447,3.525,8.135,5.131,14.059,5.131c10.588,0,19.743-5.099,27.467-15.136c7.721-10.039,12.893-22.689,15.516-37.867
		C845.787,103.918,844.85,91.764,840.213,83.547z M829.468,120.701c-1.993,11.352-5.344,20.496-10.054,27.427
		c-4.711,6.933-10.611,10.397-17.702,10.397c-9.423,0-14.935-5.288-16.536-15.865c-0.875-5.613-0.535-12.938,1.02-21.959
		c2.136-12.489,5.924-21.453,11.363-26.891c5.439-5.437,11.146-8.157,17.12-8.157c6.848,0,11.462,3.315,13.842,9.949
		C830.898,102.234,831.217,110.602,829.468,120.701z"/>
	<path fill="#38BEE5" d="M912.225,103c1.164-8,0.582-12.841-1.749-18.222c-3.741-8.48-11.487-13.142-23.239-13.142
		c-8.985,0-16.622,2.604-22.911,8.219c-6.29,5.619-10.212,12.864-11.765,21.946c-1.36,7.708,0.411,13.692,5.317,18.056
		c2.72,2.506,7.235,4.751,13.55,6.783l9.836,3.216c5.292,1.735,8.765,3.251,10.417,4.564c2.623,2.151,3.569,5.283,2.842,9.407
		c-0.924,5.436-3.462,9.454-7.614,12.053s-8.657,3.9-13.514,3.9c-8.158,0-13.43-1.908-15.808-7.105
		c-1.312-2.868-1.701-5.676-1.167-11.676h-12.602c-1.312,7-0.109,16.889,3.605,23.373c3.716,6.485,11.377,9.379,22.984,9.379
		c10.781,0,19.341-3.279,25.68-9.494c6.338-6.213,10.236-13.68,11.691-22.226c1.555-8.842,0.146-15.375-4.224-19.498
		c-2.769-2.628-8.622-5.368-17.558-8.176l-8.232-2.612c-3.594-1.135-6.24-2.452-7.941-3.946c-2.912-2.51-4.006-5.859-3.276-10.04
		c0.679-3.826,2.487-6.906,5.427-9.238c2.938-2.33,6.885-3.496,11.838-3.496c7.43,0,12.286,2.952,14.57,7.191
		C899.74,95.209,900.227,97,899.84,103H912.225z"/>
</g>
</svg>
