<svg version="1.1" xmlns="http://www.w3.org/2000/svg" xmlns:xlink="http://www.w3.org/1999/xlink" x="0px" y="0px"
	 width="800px" height="800px" viewBox="0 0 800 800" enable-background="new 0 0 800 800" xml:space="preserve">
<g>
	<g>
		<path fill="#F3FDFF" d="M320.469,561.587c0-6.954-5.469-13.173-10.469-17.269v-65.524c0-2.289,1.694-4.553,0.611-6.569
			l-67.238-127.896c5.647-5.969,12.514-13.985,12.514-22.835c0-13.728-8.887-25.545-16.887-30.613v-64.203
			c3-4.053,6.505-10.648,6.505-18.101c0-12.311-11.417-22.32-23.721-22.32c-12.307,0-24.259,10.009-24.259,22.32
			c0,6.57,2.476,12.481,5.476,16.563v66.665c-6,5.474-17.122,16.715-17.122,29.688c0,17.679,11.164,32.129,28.582,33.163
			L280,482.287v61.792c0,4.086-5.218,10.405-5.218,17.508c0,12.313,10.536,22.319,22.843,22.319
			C309.928,583.906,320.469,573.9,320.469,561.587z M220.375,196.4c6.716,0,12.177,5.455,12.177,12.177
			c0,6.707-5.46,12.173-12.177,12.173c-6.713,0-12.167-5.466-12.167-12.173C208.208,201.855,213.662,196.4,220.375,196.4z
			 M220.375,334.471c-7.154,0-12.974-5.823-12.974-12.977s5.82-12.971,12.974-12.971c7.162,0,12.983,5.817,12.983,12.971
			S227.537,334.471,220.375,334.471z M288.238,561.587c0-6.708,5.463-12.172,12.168-12.172c6.715,0,12.174,5.464,12.174,12.172
			c0,6.718-5.459,12.173-12.174,12.173C293.701,573.76,288.238,568.305,288.238,561.587z"/>
		<path fill="#F3FDFF" d="M255,151.912v112.32c0,3.3-1.955,6.49,0.178,9.008L283.358,310h-0.91c0,18,16.552,28.45,24.552,33.057
			v32.734c0,4.071-7.822,10.573-7.822,17.907c0,10.54,9.554,19.369,19.392,21.699l19.43,33.99v36.178
			c-8,4.484-14.97,13.004-14.97,22.776c0,14.409,10.913,26.124,25.319,26.124c14.4,0,24.874-11.715,24.874-26.124
			c0-8.75-0.224-16.506-12.224-21.241v-41.047c0-2.184,0.331-4.347-0.653-6.297l-17.998-36.353c1.431-2.938,2.798-6.224,2.798-9.706
			c0-6.707,0.853-12.72-7.147-16.822v-36.432c8-5.96,17.933-17.361,17.933-30.447c0-13.079-9.933-24.487-17.933-30.452V118.354
			c0-0.265-0.364-0.518-0.38-0.775c4.73-4.094,7.573-10.13,7.573-16.855c0-12.311-10.095-22.321-22.398-22.321
			c-12.307,0-23.58,10.01-23.58,22.321c0,7.337,7.785,13.828,7.785,17.896V276.93c0,1.283-5.686,3.222-8.819,5.686L280,259.117
			V151.427c0-4.098,7.562-10.26,7.562-17.142c0-12.303-10.253-22.317-22.558-22.317c-12.301,0-20.499,10.014-20.499,22.317
			C244.506,141.451,247,147.826,255,151.912z M347.549,499.975c4.614,0,8.37,3.754,8.37,8.366c0,4.618-3.756,8.37-8.37,8.37
			c-4.613,0-8.37-3.752-8.37-8.37C339.18,503.729,342.936,499.975,347.549,499.975z M322.707,405.87
			c-6.71,0-12.167-5.458-12.167-12.172c0-6.707,5.457-12.173,12.167-12.173c6.716,0,12.18,5.466,12.18,12.173
			C334.887,400.412,329.423,405.87,322.707,405.87z M322.707,88.548c6.716,0,12.18,5.461,12.18,12.176
			c0,6.71-5.464,12.162-12.18,12.162c-6.71,0-12.167-5.451-12.167-12.162C310.541,94.009,315.997,88.548,322.707,88.548z
			 M320.414,292.89c9.435,0,17.109,7.673,17.109,17.106c0,9.436-7.674,17.108-17.109,17.108c-9.436,0-17.11-7.673-17.11-17.108
			C303.304,300.563,310.979,292.89,320.414,292.89z M264.758,122.112c6.712,0,12.173,5.458,12.173,12.173
			c0,6.71-5.46,12.168-12.173,12.168c-6.713,0-12.169-5.458-12.169-12.168C252.588,127.57,258.045,122.112,264.758,122.112z"/>
		<path fill="#F3FDFF" d="M539.878,439.473c-1.007-1.76-2.043-3.311-3.036-4.753c-1.998-2.867-4.13-5.008-5.796-6.782
			c-1.794-1.693-3.378-2.875-4.366-3.697c-1.022-0.821-1.622-1.216-1.622-1.216s-0.057,0.734-0.078,2.038
			c0.014,1.299-0.089,3.222-0.011,5.512c-0.153,2.341-0.026,5.052-0.262,8.038c-0.159,1.502-0.122,3.023-0.343,4.599
			c-0.271,1.571-0.357,3.155-0.687,4.743c-0.458,1.562-0.536,3.158-1.159,4.668c-0.284,0.758-0.478,1.511-0.701,2.26
			c-0.256,0.748-0.633,1.469-0.936,2.194c-0.522,1.459-1.454,2.847-2.113,4.274c-0.933,1.412-1.663,2.821-2.748,4.291
			c-0.899,1.438-2.166,2.971-3.24,4.502c-1.297,1.571-2.43,3.155-3.87,4.832c-2.866,3.479-5.777,7.014-8.697,10.552
			c-1.525,1.883-3.047,3.784-4.563,5.659c-1.465,1.835-3.031,3.83-4.537,5.817c-3.05,3.978-6.062,8.343-8.712,12.858
			c-2.682,4.47-4.963,9.398-6.645,14.259c-1.65,4.934-2.665,9.95-2.845,14.683c-0.118,2.33,0.104,4.668,0.262,6.752
			c0.402,2.147,0.774,4.122,1.294,5.913c0.681,1.781,1.286,3.392,1.949,4.816c0.737,1.446,1.565,2.74,2.288,3.811
			c0.358,0.522,0.694,1.024,1.022,1.487c0.357,0.403,0.734,0.749,1.066,1.092c0.67,0.656,1.245,1.224,1.707,1.686
			c0.939,0.905,1.499,1.368,1.499,1.368s0.134-0.708,0.276-2.009c0.066-0.646,0.142-1.44,0.241-2.387
			c0.045-0.463,0.102-0.966,0.152-1.507c0.112-0.48,0.24-1.002,0.366-1.543c0.292-1.077,0.475-2.144,0.82-3.303
			c0.466-1.216,0.835-2.458,1.275-3.714c0.566-1.203,1.167-2.479,1.808-3.814c0.858-1.271,1.392-2.558,2.364-3.824
			c0.943-1.268,1.719-2.569,2.874-3.844c0.985-1.283,2.167-2.622,3.345-3.94c2.516-2.654,5.107-5.439,8.19-8.4
			c3.031-2.975,6.227-6.092,9.652-9.57c1.696-1.757,3.42-3.5,5.178-5.484l1.317-1.457l1.331-1.536l2.43-2.87
			c3.311-4.09,6.604-8.386,9.545-13.172c1.499-2.29,2.868-4.926,4.184-7.43c1.216-2.724,2.461-5.281,3.348-8.2
			c1.007-2.751,1.64-5.764,2.199-8.63c0.225-1.462,0.358-2.957,0.481-4.393c0.167-1.431,0.186-2.874,0.1-4.299
			c0.008-5.675-1.363-10.774-2.874-15.087C541.742,443.194,540.787,441.277,539.878,439.473z"/>
		<path fill="#F3FDFF" d="M384,113.847v430.579c-5,4.101-8.58,10.271-8.58,17.161c0,12.313,9.757,22.319,22.064,22.319
			c12.3,0,22.252-10.006,22.252-22.319c0-7.163-5.736-13.519-8.736-17.616V256.875c3,3.46,5.416,6.845,8.278,10.112
			c3.395,3.814,6.823,7.516,10.247,11.136c3.404,3.533,6.806,7.079,10.221,10.633c3.305,3.488,6.602,6.993,9.894,10.475
			c3.198,3.49,6.307,6.979,9.223,10.41c5.831,6.911,10.786,13.767,14.104,20.545c1.647,3.37,2.842,6.736,3.61,10.092
			c0.857,3.356,1.19,6.741,1.057,10.148c0.075,1.705-0.202,3.412-0.307,5.123c-0.352,1.707-0.479,3.423-0.967,5.104
			c-0.194,0.849-0.388,1.696-0.578,2.534c-0.246,0.843-0.5,1.663-0.742,2.501c-0.455,1.655-1.085,3.278-1.682,4.869
			c-2.382,6.42-5.392,12.292-8.172,17.5c-2.871,5.179-5.567,9.706-7.859,13.418c-2.296,3.722-4.094,6.714-5.397,8.688
			c-1.27,2.012-1.906,3.131-1.906,3.131s1.092-0.653,3.084-1.977c1.99-1.312,4.95-3.225,8.493-5.949
			c3.578-2.693,7.754-6.193,12.362-10.548c4.508-4.439,9.432-9.755,14.04-16.515c4.481-6.779,8.94-15.028,10.912-25.24
			c1.004-5.051,1.368-10.521,0.899-16.035c-0.492-5.522-1.76-11.048-3.58-16.327c-3.844-10.454-9.651-19.792-16.076-28.1
			c-3.154-4.243-6.569-8.153-9.995-12.012c-3.434-3.862-6.894-7.572-10.494-11.207c-7.054-7.3-14.342-14.051-20.897-20.7
			c-6.647-6.583-12.626-13.141-17.649-19.817c-2.471-3.367-4.746-6.73-6.741-10.164c-1.237-2.167-3.381-4.347-3.381-6.532v-97.586
			c11-5.141,20.342-17.05,20.342-30.885c0-18.525-15.104-33.595-33.625-33.595c-18.52,0-33.096,15.069-33.096,33.595
			C364.622,96.947,373,108.389,384,113.847z M397.226,573.76c-6.713,0-12.178-5.455-12.178-12.173
			c0-6.708,5.465-12.172,12.178-12.172c6.71,0,12.173,5.464,12.173,12.172C409.398,568.305,403.936,573.76,397.226,573.76z
			 M397.684,65.325c10.133,0,18.381,8.243,18.381,18.379c0,10.123-8.248,18.369-18.381,18.369c-10.128,0-18.375-8.247-18.375-18.369
			C379.309,73.567,387.556,65.325,397.684,65.325z"/>
		<path fill="#F3FDFF" d="M448.126,487.399c1.621-4.765,3.713-9.604,5.86-14.433c2.141-4.827,4.542-9.637,6.797-14.412
			c4.649-9.486,9.139-18.691,12.664-26.914c3.543-8.211,6.096-15.395,7.595-20.58c0.802-2.555,1.22-4.689,1.589-6.088
			c0.34-1.417,0.469-2.196,0.469-2.196s-0.659,0.447-1.815,1.326c-1.133,0.902-2.855,2.175-4.918,3.867
			c-4.119,3.381-9.838,8.266-16.246,14.514c-3.203,3.139-6.581,6.629-10.041,10.469c-3.423,3.87-6.967,8.033-10.379,12.658
			c-3.444,4.604-6.821,9.564-9.864,15.035c-3.039,5.451-5.868,11.271-8.053,17.581c-2.156,6.305-3.721,13.043-4.303,19.924
			c-0.626,6.867-0.111,13.933,1.528,20.408c1.544,6.495,4.078,12.468,7.207,17.449c3.008,5.081,6.636,9.156,10.054,12.639
			c1.794,1.663,3.543,3.184,5.221,4.585c1.722,1.35,3.411,2.536,5.007,3.616c3.158,2.186,6.241,3.725,8.616,5.003
			c2.427,1.127,4.463,1.846,5.789,2.41c1.354,0.528,2.115,0.771,2.115,0.771s-0.352-0.71-1.066-1.977
			c-0.735-1.234-1.754-3.146-3.166-5.402c-1.215-2.382-2.838-4.94-4.418-8.091c-0.761-1.588-1.723-3.146-2.528-4.888
			c-0.756-1.771-1.674-3.512-2.476-5.379c-1.51-3.766-3.087-7.71-4.078-11.883c-1.163-4.104-1.723-8.402-1.92-12.728
			c-0.138-4.339,0.115-8.747,0.992-13.298C445.186,496.832,446.479,492.153,448.126,487.399z"/>
		<path fill="#F3FDFF" d="M608.686,269.683c-0.374-2.938-0.687-5.697-1.073-8.276c-0.747-5.168-1.88-9.596-2.716-13.209
			c-2.022-7.215-3.6-11.192-3.6-11.192c0.006,0-1.32,4.172-3.018,11.219c-1.066,3.52-2.001,7.762-3.396,12.519
			c-0.715,2.375-1.345,4.888-2.095,7.513c-0.85,2.609-1.647,5.338-2.517,8.161c-1.814,5.619-3.882,11.557-6.26,17.658
			c-1.253,2.992-2.539,6.077-3.852,9.219c-1.562,3.027-2.817,6.208-4.454,9.291c-1.73,3.035-3.144,6.246-5.064,9.253
			c-0.887,1.532-1.773,3.08-2.673,4.626c-0.973,1.5-1.941,3.021-2.922,4.531c-3.844,6.115-8.303,11.964-12.851,17.768l-3.576,4.253
			c-1.196,1.414-2.346,2.895-3.567,4.151c-2.469,2.625-4.523,5.212-7.561,8.164c-1.403,1.44-2.79,2.875-4.184,4.306l-0.507,0.53
			l-0.068,0.081c0.225-0.205,0.337-0.306,0.418-0.38l-0.081,0.085l-0.265,0.243l-1.034,0.98l-2.068,1.958
			c-2.773,2.654-5.589,5.298-8.377,8.075c-5.607,5.454-11.059,11.225-15.86,17.347c-4.802,6.091-8.813,12.851-11.415,19.644
			c-1.365,3.353-2.148,6.871-2.804,10.115c-0.217,1.666-0.311,3.321-0.434,4.88c-0.049,0.779-0.092,1.551-0.141,2.301
			c0.067,0.764,0.118,1.518,0.178,2.252c0.142,1.449,0.284,2.841,0.418,4.189c0.202,1.328,0.612,2.581,0.918,3.759
			c0.335,1.166,0.646,2.282,0.946,3.349c0.417,1.058,0.907,2.03,1.32,2.944c1.574,3.766,3.348,5.939,4.556,7.576
			c1.219,1.596,1.872,2.445,1.872,2.445s-0.022-1.069-0.075-3.075c-0.033-0.999-0.083-2.23-0.183-3.669
			c-0.086-0.72,0-1.473,0.078-2.256c0.06-0.757,0.128-1.566,0.194-2.415c0.067-0.821,0.135-1.686,0.208-2.585
			c0.194-0.895,0.396-1.845,0.602-2.822c0.228-0.962,0.361-1.949,0.644-2.938c0.351-0.962,0.712-1.961,1.09-2.986
			c0.174-0.496,0.358-1.006,0.536-1.514c0.254-0.492,0.514-0.983,0.775-1.491c0.53-0.995,1.003-2.01,1.578-3.001
			c1.412-1.941,2.553-3.975,4.373-5.879c3.329-3.886,7.459-7.732,12.508-11.61c4.995-3.904,10.703-7.854,16.817-12.199
			c3.08-2.132,6.267-4.424,9.516-6.822l2.453-1.872l1.229-0.935l0.306-0.24l0.152-0.111c0.265-0.235-0.474,0.424,0.604-0.544
			l0.073-0.063l0.567-0.474c1.511-1.309,3.024-2.617,4.537-3.929c2.931-2.432,6.294-5.873,9.463-9.074
			c3.254-3.24,5.935-6.655,8.896-10.022c5.51-7.012,10.673-14.383,14.822-22.205c1.036-1.961,2.058-3.908,3.08-5.839
			c0.891-2.006,1.773-3.999,2.654-5.976c1.818-3.934,3.102-8.042,4.462-11.982c0.72-1.965,1.153-4.015,1.727-5.98
			c0.544-1.979,1.074-3.937,1.514-5.89c0.686-3.956,1.559-7.763,2.003-11.532c0.338-3.777,0.89-7.39,0.983-10.936
			c0.048-3.544,0.265-6.923,0.139-10.181C609.029,275.704,608.901,272.613,608.686,269.683z"/>
		<path fill="#F3FDFF" d="M443.724,74.142c0.819,0.253,1.695,0.514,2.627,0.798c0.919,0.31,1.851,0.715,2.834,1.104
			c1.938,0.753,4.079,1.584,6.414,2.494c2.28,1.007,4.749,2.204,7.336,3.408c2.609,1.1,5.241,2.699,8.016,4.209
			c1.364,0.832,2.837,1.436,4.213,2.382c1.388,0.898,2.808,1.819,4.257,2.755c2.932,1.738,5.784,3.922,8.725,6.088
			c3.009,2.042,5.823,4.661,8.833,7.054c2.919,2.517,5.808,5.279,8.771,7.993c2.719,3.046,5.823,5.723,8.527,8.963
			c2.743,3.195,5.617,6.312,8.217,9.791c2.789,3.285,5.293,6.882,7.886,10.446c2.639,3.523,4.883,7.404,7.433,11.062l3.428,5.778
			c1.173,1.917,2.336,3.833,3.343,5.854l3.229,5.924c1.08,1.972,1.979,4.038,2.997,6.04l1.477,3.023l0.752,1.507l0.807,1.699
			l1.543,3.262l1.256,2.837c3.441,7.849,6.398,15.969,8.505,23.738c1.1,3.903,1.841,7.765,2.483,11.482
			c0.648,3.731,0.97,7.382,1.047,10.801c0.212,6.918-0.809,12.985-2.986,17.929c-2.177,4.92-5.768,8.787-10.043,11.557
			c-4.255,2.818-8.956,4.429-12.923,5.565c-1.995,0.589-3.836,0.996-5.469,1.317c-1.629,0.357-3.039,0.622-4.194,0.78
			c-2.33,0.391-3.575,0.6-3.575,0.6s1.181,0.451,3.403,1.302c0.566,0.209,1.192,0.439,1.895,0.686
			c0.707,0.204,1.48,0.413,2.322,0.641c0.846,0.228,1.764,0.466,2.739,0.731c0.999,0.179,2.067,0.365,3.185,0.567
			c4.526,0.705,10.306,1.189,17.187-0.292c1.72-0.396,3.506-0.828,5.295-1.566c1.834-0.614,3.616-1.54,5.479-2.494
			c3.624-2.081,7.219-4.902,10.344-8.434c3.086-3.541,5.637-7.717,7.702-12.179c2.05-4.504,3.332-9.295,4.331-14.189
			c1.843-9.829,1.843-20.076,0.501-30.229c-1.253-10.226-3.849-20.289-7.505-30.295l-1.462-3.862l-1.376-3.362l-0.679-1.626
			l-0.787-1.786l-1.617-3.571c-1.104-2.372-2.084-4.813-3.329-7.132l-3.707-6.968c-2.453-4.66-5.442-9.03-8.201-13.485
			c-1.51-2.159-3.058-4.276-4.608-6.394c-1.532-2.118-3.049-4.247-4.776-6.204c-1.674-1.995-3.348-3.975-5.006-5.954
			c-1.663-1.964-3.543-3.754-5.295-5.615c-1.818-1.805-3.497-3.688-5.417-5.361c-1.897-1.659-3.791-3.318-5.663-4.958
			c-1.823-1.671-3.803-3.169-5.764-4.642c-1.936-1.502-3.889-2.931-5.819-4.336c-2.028-1.287-4.03-2.569-6.01-3.83
			c-1.995-1.226-3.866-2.557-5.957-3.541c-8.051-4.332-15.983-7.781-23.601-10.029c-3.822-1.093-7.393-2.234-10.991-2.763
			c-3.56-0.589-6.812-1.398-10.039-1.5c-3.195-0.205-6.085-0.536-8.852-0.533c-2.796,0.09-5.324,0.165-7.568,0.307
			c-1.125,0.078-2.191,0.104-3.161,0.212c-0.962,0.168-1.864,0.325-2.71,0.463c-1.679,0.306-3.106,0.569-4.27,0.778
			c-2.322,0.482-3.557,0.735-3.557,0.735s1.197,0.399,3.441,1.17C440.707,73.191,442.095,73.63,443.724,74.142z"/>
		<path fill="#F3FDFF" d="M425.511,129.356c-1.022,1.081-1.566,1.663-1.566,1.663s0.787-0.048,2.26-0.134
			c0.705-0.082,1.603-0.089,2.625-0.097c1.007-0.037,2.17,0,3.431,0.071c2.516,0.115,5.457,0.499,8.562,1.349
			c3.105,0.843,6.361,2.122,9.6,3.904c3.24,1.786,6.488,4.116,9.649,6.875c3.206,2.688,6.227,6.028,9.2,9.521
			c2.92,3.572,5.694,7.468,8.15,11.55c1.231,2.04,2.386,4.124,3.423,6.219c0.495,1,1.06,2.196,1.405,3.046l0.635,1.45l0.831,2.043
			c1.611,4.179,2.774,8.247,3.542,12.434c0.737,4.175,1.1,8.438,1.118,12.806c0.008,4.352-0.298,8.788-0.836,13.18
			c-0.26,2.188-0.558,4.366-0.895,6.509c-0.384,2.129-0.712,4.25-1.111,6.304c-0.79,4.087-1.58,7.994-2.341,11.517
			c-0.761,3.613-1.423,6.768-1.969,9.363c-0.521,2.687-0.932,4.8-1.185,6.334c-0.262,1.506-0.355,2.336-0.355,2.336
			s0.758-0.354,2.097-1.096c1.337-0.715,3.262-1.901,5.573-3.5c2.304-1.618,5.007-3.691,7.894-6.345
			c2.866-2.646,5.976-5.828,8.98-9.693c1.524-1.909,3.031-3.998,4.443-6.264c1.462-2.26,2.871-4.676,4.161-7.296
			c2.588-5.216,4.754-11.177,6.062-17.772c1.299-6.573,1.679-13.783,0.787-21.061c-0.897-7.273-3.102-14.57-6.312-21.109
			l-0.98-1.979l-1.301-2.49c-0.954-1.79-1.819-3.155-2.781-4.683c-1.871-2.997-3.996-5.738-6.159-8.38
			c-4.365-5.257-9.297-9.813-14.498-13.675c-5.235-3.844-10.809-6.913-16.438-9.116c-5.667-2.14-11.326-3.471-16.657-3.74
			c-5.324-0.324-10.201,0.302-14.242,1.477c-4.056,1.133-7.277,2.777-9.686,4.373c-1.216,0.742-2.215,1.543-3.063,2.245
			C426.703,128.156,426.033,128.812,425.511,129.356z"/>
		<path fill="#F3FDFF" d="M498.483,618.304c0-11.774-9.519-19.304-21.284-19.304H306.884c-11.767,0-21.284,7.529-21.284,19.304
			c0,11.767,9.517,20.284,21.284,20.284c-11.767,0-21.284,9.025-21.284,20.799c0,11.759,9.517,21.035,21.284,21.035
			c-11.767,0-21.284,10.524-21.284,22.284c0,11.773,9.517,22.294,21.284,22.294h42.581c10.061,11,25.815,21.295,42.581,21.295
			c16.755,0,32.511-10.295,42.576-21.295h42.577c11.766,0,21.284-10.641,21.284-22.41c0-11.766-9.519-21.862-21.284-21.862
			c11.766,0,21.284-9.798,21.284-21.563s-9.519-20.44-21.284-20.44C488.965,638.724,498.483,630.07,498.483,618.304z"/>
	</g>
</g>
</svg>
